# xmcd
#
# Track frame offsets: 
#        183
#        17198
#        31625
#        47278
#        64738
#        80730
#        95225
#        115045
#        131290
#        148948
#        165805
#        178323
#
# Disc length: 2555 seconds
#
# Revision: 3
# Processed by: cddbd v1.5.2PL0 Copyright (c) Steve Scherf et al.
# Submitted via: ExactAudioCopy v1.0b1
#
DISCID=9809f90c
DTITLE=譚詠麟 - 愛到你發狂
DYEAR=1980
DGENRE=流行音樂
TTITLE0=愛到你發狂
TTITLE1=滿天飛
TTITLE2=成功需苦幹
TTITLE3=苦戀
TTITLE4=還是那一天
TTITLE5=我愛 Disco Queen
TTITLE6=輕鬆踫一踫
TTITLE7=相識非偶然
TTITLE8=愛嘅熱力
TTITLE9=莫說愛情重 (商業電台「香港八０」廣播劇「莫說愛情重」主題曲)
TTITLE10=張開那心
TTITLE11=人生滿希望
EXTD=
EXTT0=
EXTT1=
EXTT2=
EXTT3=
EXTT4=
EXTT5=
EXTT6=
EXTT7=
EXTT8=
EXTT9=
EXTT10=
EXTT11=
PLAYORDER=
